<svg width="32" height="32" viewBox="0 0 32 32" fill="none" xmlns="http://www.w3.org/2000/svg">
<path d="M15.5568 10.6667C15.323 10.6653 15.0912 10.7101 14.8748 10.7985C14.6583 10.887 14.4615 11.0172 14.2955 11.1819L7.18922 18.2881C7.02358 18.4538 6.89218 18.6504 6.80253 18.8668C6.71289 19.0833 6.66675 19.3152 6.66675 19.5495C6.66675 19.7837 6.71289 20.0157 6.80253 20.2321C6.89218 20.4486 7.02358 20.6452 7.18922 20.8108C7.35486 20.9765 7.55151 21.1079 7.76794 21.1975C7.98436 21.2872 8.21632 21.3333 8.45058 21.3333C8.68483 21.3333 8.9168 21.2872 9.13322 21.1975C9.34965 21.1079 9.54629 20.9765 9.71194 20.8108L15.5568 14.9304L21.4195 20.5799C21.5829 20.7616 21.7821 20.9077 22.0045 21.0089C22.227 21.1101 22.4679 21.1644 22.7123 21.1683C22.9567 21.1721 23.1992 21.1255 23.4247 21.0314C23.6503 20.9373 23.854 20.7976 24.0231 20.6211C24.1922 20.4447 24.3231 20.2352 24.4075 20.0059C24.492 19.7765 24.5282 19.5322 24.514 19.2883C24.4997 19.0443 24.4352 18.8058 24.3246 18.5879C24.214 18.37 24.0596 18.1772 23.8711 18.0216L16.7649 11.1641C16.44 10.8509 16.0081 10.673 15.5568 10.6667Z" fill="#182338"/>
</svg>
